# xmcd
#
# Track frame offsets:
#	150
#	4803
#	17993
#	30699
#	50065
#	63617
#	81147
#	100275
#	121679
#	138201
#	152660
#	169158
#	182827
#
# Disc length: 2737 seconds
#
# Revision: 0
# Processed by: cddbd v1.5.2PL0 Copyright (c) Steve Scherf et al.
# Submitted via: EasyCDDAExtractor 10.0.2.1
#
DISCID=a80aaf0d
DTITLE=Alice Cooper - Three Clans Ballroom Oneida Casino Green Bay WI 19-08-07
DTITLE=Master Disc 1
DYEAR=2007
DGENRE=Hard Rock
TTITLE0=It's Hot Tonight
TTITLE1=No More Mr Nice Guy
TTITLE2=Under My Wheels
TTITLE3=Eighteen
TTITLE4=Is It My Body
TTITLE5=Woman Of Mass Distraction
TTITLE6=Lost In America
TTITLE7=Feed My Frankenstein
TTITLE8=Be My Lover
TTITLE9=Raped And Freezing
TTITLE10=Public Enemy No 9
TTITLE11=Muscle Of Love
TTITLE12=Desperado
EXTD=
EXTT0=
EXTT1=
EXTT2=
EXTT3=
EXTT4=
EXTT5=
EXTT6=
EXTT7=
EXTT8=
EXTT9=
EXTT10=
EXTT11=
EXTT12=
PLAYORDER=
